# xmcd CD database file
#
# Track frame offsets:
#	150
#	12738
#	26184
#	42866
#	55459
#	70733
#	85920
#	98748
#	114150
#	128243
#	147052
#	161258
#	178135
#	192905
#
# Disc length: 2709 seconds
#
# Revision: 0
# Processed by: cddbd v1.5.1PL0 Copyright (c) Steve Scherf et al.
# Submitted via: CDex 1.50Beta7
#
DISCID=bc0a930e
DTITLE=Div.Artiesten - Coutry Music
DYEAR=2005
DGENRE=Country
TTITLE0=Truck Stop - Der wilde,wilde westen
TTITLE1=Johny Hill - Ich hab noch viele traume
TTITLE2=Linde Feller - Tanzen mit der wind
TTITLE3=Mark Bender - L.I.E.B.E
TTITLE4=Gunter Gabtiel - Truckstop,tom aster und ich
TTITLE5=Dagmar - Darf ein truck mit seinen fahrer in den himmel
TTITLE6=Coutry roads - Dagegen hilft nur country music
TTITLE7=Joe Hodkins Boss Band - Nimm dir zeit fúr deine freunde
TTITLE8=Muck - Die richtige frau
TTITLE9=Pete Cach - Country roads
TTITLE10=Iris McCollins - Liebeskrank
TTITLE11=Larry Schuba and Western Union - Mensch,waren das noch teiten
TTITLE12=Linda Feller and Johny Hill - Darling
TTITLE13=Dave Dudley - Six days on the road
EXTD=YEAR: 2005
EXTT0=
EXTT1=
EXTT2=
EXTT3=
EXTT4=
EXTT5=
EXTT6=
EXTT7=
EXTT8=
EXTT9=
EXTT10=
EXTT11=
EXTT12=
EXTT13=
PLAYORDER=
